<svg xmlns="http://www.w3.org/2000/svg" viewBox="0 0 64 80" x="0px" y="0px"><title>coffe</title><g><path d="M27.47,24.27a1,1,0,0,1-.6-.2,1,1,0,0,1-.21-1.4,5.81,5.81,0,0,0,0-6.8,6.05,6.05,0,0,1-1.49-4.67,4.3,4.3,0,0,1,1.7-2.76A1,1,0,0,1,28,10.09a2.33,2.33,0,0,0-.86,1.47,4.24,4.24,0,0,0,1.11,3.1,7.75,7.75,0,0,1,0,9.2A1,1,0,0,1,27.47,24.27Z"/><path d="M20.47,23.31a1,1,0,0,1-.71-.29,1,1,0,0,1,0-1.41,3.74,3.74,0,0,0,.83-2A3,3,0,0,0,19.74,17a3.71,3.71,0,0,1,0-5.41A1,1,0,0,1,21.14,13a1.73,1.73,0,0,0,0,2.59c2.48,2.46,1.36,6.08,0,7.41A1,1,0,0,1,20.47,23.31Z"/><path d="M35.47,23.23a1,1,0,0,1-.71-.29,1,1,0,0,1,0-1.41,3.67,3.67,0,0,0,.83-2,3,3,0,0,0-.84-2.56,3.71,3.71,0,0,1,0-5.41,1,1,0,0,1,1.43,1.4,1.73,1.73,0,0,0,0,2.59c2.48,2.46,1.36,6.08,0,7.42A1,1,0,0,1,35.47,23.23Z"/><path d="M43.49,29l-32,.12a1,1,0,0,0-1,1c0,12.14,7.71,22,17.09,22s17-9.94,16.91-22.08A1,1,0,0,0,43.49,29Z"/><path d="M46.37,28.9a3,3,0,0,1,.12.79c0,.44,0,.87,0,1.29A7,7,0,0,1,44.55,44.7a6.66,6.66,0,0,1-2-.3q-.56.9-1.17,1.74a9,9,0,1,0,5-17.24Z"/><path d="M42,56H13a1,1,0,0,1,0-2H42a1,1,0,0,1,0,2Z"/></g></svg>