<svg xmlns="http://www.w3.org/2000/svg" xmlns:xlink="http://www.w3.org/1999/xlink" version="1.1" x="0px" y="0px" viewBox="0 0 100 125" style="enable-background:new 0 0 100 100;" xml:space="preserve"><path d="M75.58,31.07h-7.54v-3.81c2.25-0.97,3.84-3.21,3.84-5.82c0-3.12-2.27-5.72-5.24-6.24c-0.28-2.02-1.36-3.82-3.05-5.03  c-1.72-1.24-3.79-1.69-5.81-1.3C56.64,7,54.62,5.84,52.37,5.84c-0.92,0-1.83,0.2-2.66,0.59c-1.21-2.61-3.88-4.39-6.85-4.39  c-2.75,0-5.21,1.45-6.54,3.78c-1.71-0.44-3.53-0.14-5.02,0.82c-1.57-0.9-3.44-1.21-5.23-0.84c-1.85,0.37-3.49,1.43-4.6,2.95  c-1.88-0.02-3.72,0.66-5.13,1.93c-1.32,1.19-2.18,2.81-2.43,4.55c-2.47,0.51-4.33,2.7-4.33,5.31c0,2.35,1.5,4.42,3.72,5.15  c0.33,0.11,0.53,0.39,0.53,0.74v28.09c0,2.33,1.65,4.28,3.84,4.77v31.67c0,3.87,3.15,7.02,7.02,7.02h36.32  c3.87,0,7.02-3.15,7.02-7.02V80.63h7.54c8.17,0,14.82-6.65,14.82-14.82V45.89C90.4,37.72,83.76,31.07,75.58,31.07z M68.05,40.04  h7.54c3.23,0,5.85,2.62,5.85,5.85v19.92c0,3.23-2.62,5.85-5.85,5.85h-7.54V40.04z M16.19,54.51V26.42c0-1.37-0.84-2.53-2.14-2.96  c-1.27-0.42-2.12-1.6-2.12-2.93c0-1.7,1.38-3.09,3.09-3.09c0.31,0,0.61-0.12,0.83-0.34c0.22-0.22,0.34-0.52,0.34-0.83  c0-1.47,0.63-2.88,1.72-3.87c0.96-0.86,2.2-1.33,3.48-1.33c0.19,0,0.37,0.01,0.56,0.03c0.46,0.05,0.9-0.17,1.13-0.57  c0.75-1.27,2.01-2.16,3.45-2.45c1.44-0.29,2.94,0.04,4.12,0.91c0.44,0.33,1.05,0.3,1.47-0.06c1.19-1.04,2.88-1.28,4.31-0.62  c0.29,0.14,0.63,0.15,0.93,0.02c0.3-0.12,0.54-0.36,0.65-0.66c0.78-2.01,2.69-3.31,4.85-3.31c2.42,0,4.55,1.71,5.07,4.07  c0.09,0.4,0.38,0.72,0.76,0.85c0.38,0.13,0.81,0.05,1.13-0.2c0.71-0.59,1.62-0.91,2.54-0.91c1.64,0,3.09,0.98,3.71,2.5  c0.23,0.57,0.87,0.87,1.46,0.67c1.6-0.53,3.31-0.27,4.69,0.72c1.37,0.99,2.16,2.52,2.16,4.21c0,0.65,0.52,1.17,1.17,1.17  c2.2,0,3.99,1.79,3.99,3.99c0,2.2-1.79,3.99-3.99,3.99h-2.66c-2.7,0-4.89,2.19-4.89,4.89v1.13c0,1.41-1.14,2.55-2.55,2.55  c-1.41,0-2.55-1.14-2.55-2.55v-1.13c0-2.7-2.19-4.89-4.89-4.89h-6.94c-2.7,0-4.89,2.19-4.89,4.89v4.79c0,1.41-1.14,2.55-2.55,2.55  c-1.41,0-2.55-1.14-2.55-2.55V31.6c0-2.7-2.19-4.89-4.89-4.89c-2.7,0-4.89,2.19-4.89,4.89v22.92c0,1.41-1.14,2.55-2.55,2.55  C17.34,57.06,16.19,55.92,16.19,54.51z M61.03,95.62H24.71c-2.58,0-4.68-2.1-4.68-4.68V59.21c2.07-0.57,3.61-2.45,3.61-4.7V31.6  c0-1.41,1.14-2.55,2.55-2.55c1.41,0,2.55,1.14,2.55,2.55v3.52c0,2.7,2.19,4.89,4.89,4.89s4.89-2.19,4.89-4.89v-4.79  c0-1.41,1.14-2.55,2.55-2.55h6.94c1.41,0,2.55,1.14,2.55,2.55v1.13c0,2.7,2.19,4.89,4.89,4.89c2.7,0,4.89-2.19,4.89-4.89v-1.13  c0-1.41,1.14-2.55,2.55-2.55h2.66c0.05,0,0.1-0.01,0.16-0.01v63.18C65.71,93.53,63.61,95.62,61.03,95.62z M88.06,65.81  c0,6.88-5.6,12.48-12.48,12.48h-7.54V74h7.54c4.52,0,8.19-3.67,8.19-8.19V45.89c0-4.52-3.67-8.19-8.19-8.19h-7.54v-4.29h7.54  c6.88,0,12.48,5.6,12.48,12.48V65.81z M32.03,45.89v35.52c0,0.65-0.52,1.17-1.17,1.17s-1.17-0.52-1.17-1.17V45.89  c0-0.65,0.52-1.17,1.17-1.17S32.03,45.24,32.03,45.89z M44.04,41.99v39.42c0,0.65-0.52,1.17-1.17,1.17s-1.17-0.52-1.17-1.17V41.99  c0-0.65,0.52-1.17,1.17-1.17S44.04,41.34,44.04,41.99z M56.04,41.99v39.42c0,0.65-0.52,1.17-1.17,1.17s-1.17-0.52-1.17-1.17V41.99  c0-0.65,0.52-1.17,1.17-1.17S56.04,41.34,56.04,41.99z"/></svg>