<svg xmlns="http://www.w3.org/2000/svg" data-name="Layer 51" viewBox="0 0 100 125" x="0px" y="0px"><path d="M8.54,63.65A13.69,13.69,0,0,0,11.85,67,21.23,21.23,0,0,0,18.41,70c16.78,4.84,57,6.38,67.11-20.57,2.49-6.62,3.06-12.94,1.65-18.26a18.89,18.89,0,0,0-1.71-4.32l-.79-1.31h0A17.4,17.4,0,0,0,71.8,17.91c-7.63-.82-15.79,2.54-23,9.47C38.22,37.6,29.27,40,22.07,41.91,14.4,44,9.33,45.31,6.5,55a12.47,12.47,0,0,0,1.4,7.58ZM14.42,50C17,46.62,21,45.48,26.11,44c6.56-1.85,14.72-4.15,23.63-12.16,7.11-6.39,15.1-9.59,21.95-8.76A12.89,12.89,0,0,1,81,28.45l.08.11.58,1A13.42,13.42,0,0,1,82.94,33c.87,4.18,0,9.24-2.56,14.62-8,16.95-30,20.58-45.2,20.58a75.67,75.67,0,0,1-13.53-1.08,16.31,16.31,0,0,1-5.59-2.06,9.73,9.73,0,0,1-2.85-2.62l-.58-1C10.11,56.69,12.27,52.81,14.42,50Z"/><path d="M14.47,61.63a8.24,8.24,0,0,0,2.38,2.17,15.08,15.08,0,0,0,5.09,1.86C31.26,67.49,68.28,69.68,79,47c2.41-5.08,3.25-9.8,2.44-13.66a11.48,11.48,0,0,0-1.11-3.06l-.54-.9,0-.06a11.24,11.24,0,0,0-8.26-4.69,16.4,16.4,0,0,0-2-.12c-6,0-12.67,3-18.77,8.51-9.16,8.24-17.52,10.59-24.23,12.48-4.84,1.37-8.67,2.44-10.89,5.38-2.84,3.76-3.34,6.72-1.66,9.92ZM60.3,36.3a8.85,8.85,0,0,1,9-5.46,5.59,5.59,0,0,1,4.22,2.58,5.41,5.41,0,0,1,.64,3.85,7.87,7.87,0,0,1-2.49,4.23,8.88,8.88,0,0,1-1.43,1.07,8.78,8.78,0,0,1-4.5,1.29,6.74,6.74,0,0,1-2-.29,5.3,5.3,0,0,1-3.11-2.34A5.57,5.57,0,0,1,60.3,36.3Z"/><polygon points="80.38 28.98 80.38 28.99 80.45 28.95 80.38 28.98"/><path d="M86.92,50C82.19,62.56,70.75,70.63,53.85,73.33,40.8,75.42,26.44,73.89,18,71.46a23.51,23.51,0,0,1-6.49-2.9l2.74,4.51c2,2.89,5.3,5,9.84,6.34,16.79,4.84,57,6.38,67.11-20.58,3.22-8.57,3.2-16.59-.06-22.57l-2.08-3.45C90,38,89.22,43.87,86.92,50Z"/><path d="M63.45,41.85a8.78,8.78,0,0,1,9.32-5.64,3.64,3.64,0,0,0-.52-2,4.1,4.1,0,0,0-3.12-1.87,6.3,6.3,0,0,0-.75,0,7.23,7.23,0,0,0-3.7,1.09,7,7,0,0,0-3,3.45,4.09,4.09,0,0,0,.2,3.63A3.73,3.73,0,0,0,63.45,41.85Z"/><path d="M67.91,38.69a6.88,6.88,0,0,0-3,3.61,7.34,7.34,0,0,0,7.63-4.62A6.9,6.9,0,0,0,67.91,38.69Z"/></svg>