<svg xmlns="http://www.w3.org/2000/svg" viewBox="0 0 64 80" x="0px" y="0px"><title>salad-vegetables-vegetarian-healthy food-vegan-organic</title><path d="M60,31a6,6,0,0,0-6-6h-.27A6.93,6.93,0,0,0,55,21a7,7,0,0,0-7-7,6.84,6.84,0,0,0-3.19.78c.61-.47,1.57-1.32.94-2.45s-2.08-.91-2.82-.72a2.52,2.52,0,0,1-1,.13,2.54,2.54,0,0,1,0-.67,2.53,2.53,0,0,0-.77-2.46,2.54,2.54,0,0,0-2.57-.13,1.78,1.78,0,0,1-.67.16A2.54,2.54,0,0,1,38,8a2.51,2.51,0,0,0-.77-2.45,2.5,2.5,0,0,0-2.56-.14,1.88,1.88,0,0,1-.66.17,3.21,3.21,0,0,1-.2-1.09C33.74,3.66,33.6,2,32,2h0c-1.6,0-1.74,1.67-1.81,2.47A2.67,2.67,0,0,1,30,5.56a2.26,2.26,0,0,1-.64-.17,2.54,2.54,0,0,0-2.57.13A2.52,2.52,0,0,0,26,8a1.7,1.7,0,0,1,0,.69,2.1,2.1,0,0,1-.64-.17,2.54,2.54,0,0,0-2.57.13A2.52,2.52,0,0,0,22,11.07a1.91,1.91,0,0,1,0,.68,2.75,2.75,0,0,1-.93-.14c-.74-.18-2.13-.53-2.82.72a1.43,1.43,0,0,0,0,1.47A11.86,11.86,0,0,0,14,13H2V25A12,12,0,0,0,7.38,35H2v1A22,22,0,0,0,21,57.79V62H43V57.79A22,22,0,0,0,62,36V35H58.46A6,6,0,0,0,60,31Zm-2,0a4,4,0,1,1-4-4A4,4,0,0,1,58,31Zm-32-.64h0A2.54,2.54,0,0,1,26,31s0,.08,0,.11Zm0,1.7a2,2,0,0,0,.78,1.42,2.5,2.5,0,0,0,2.56.14,1.88,1.88,0,0,1,.66-.17,3.21,3.21,0,0,1,.2,1.09c0,.13,0,.29.05.46H26Zm11.23,1.42.22-.21A5.89,5.89,0,0,0,38.54,35H33.76c0-.17,0-.33.05-.47A2.67,2.67,0,0,1,34,33.44a2,2,0,0,1,.64.17A2.54,2.54,0,0,0,37.23,33.48ZM39,31a4,4,0,1,1,4,4A4,4,0,0,1,39,31Zm9.5-2.39a5.2,5.2,0,0,0-.32-.62c.23,0,.45,0,.67,0A6.11,6.11,0,0,0,48.5,28.61Zm0,4.78a6.09,6.09,0,0,0,1,1.61H47.46A6.09,6.09,0,0,0,48.5,33.39ZM53,21a5,5,0,1,1-5-5A5,5,0,0,1,53,21ZM21,13.65a2.53,2.53,0,0,0,2.21-.32A2.51,2.51,0,0,0,24,10.88a1.71,1.71,0,0,1,0-.69,2.1,2.1,0,0,1,.64.18,2.54,2.54,0,0,0,2.57-.13A2.55,2.55,0,0,0,28,7.78a1.55,1.55,0,0,1,0-.69,2.49,2.49,0,0,1,.65.18,2.5,2.5,0,0,0,2.56-.14A2.25,2.25,0,0,0,32,5.91a2.26,2.26,0,0,0,.77,1.22,2.54,2.54,0,0,0,2.57.13A1.55,1.55,0,0,1,36,7.11a2.53,2.53,0,0,1,0,.67,2.52,2.52,0,0,0,.77,2.45,2.52,2.52,0,0,0,2.56.13,1.65,1.65,0,0,1,.68-.15,2.17,2.17,0,0,1,0,.67,2.54,2.54,0,0,0,.77,2.45,2.56,2.56,0,0,0,2.22.32,2.25,2.25,0,0,0-1,1.71,1.69,1.69,0,0,0,.55,1.26A6.95,6.95,0,0,0,42.3,25a6,6,0,0,0-4.7,3.37,2,2,0,0,0-.82.35A2.55,2.55,0,0,0,36,31.22a1.55,1.55,0,0,1,0,.69,2.49,2.49,0,0,1-.65-.18,2.5,2.5,0,0,0-2.56.14A2.25,2.25,0,0,0,32,33.09a2.26,2.26,0,0,0-.77-1.22,2.54,2.54,0,0,0-2.57-.13,1.55,1.55,0,0,1-.67.15,2.53,2.53,0,0,1,0-.67,2.52,2.52,0,0,0-.77-2.45A2.05,2.05,0,0,0,26,28.35V25a11.63,11.63,0,0,0-.39-3L31,27.41V29a1,1,0,0,0,2,0V27.41l5.71-5.7a1,1,0,0,0-1.42-1.42L33,24.59V21.41l4.71-4.7a1,1,0,0,0-1.42-1.42L33,18.59V15.41l2.71-2.7a1,1,0,0,0-1.42-1.42L33,12.59V10a1,1,0,0,0-2,0v2.59l-1.29-1.3a1,1,0,0,0-1.42,1.42L31,15.41v3.18l-3.29-3.3a1,1,0,0,0-1.42,1.42L31,21.41v3.18l-4.29-4.3a1,1,0,0,0-1.42,0,1.32,1.32,0,0,0-.16.25A11.89,11.89,0,0,0,21.88,16a1.68,1.68,0,0,0,.12-.61A2.29,2.29,0,0,0,21,13.65ZM4,25V15H14A10,10,0,0,1,24,25V35H14A10,10,0,0,1,4,25ZM41,58v2H23V58Zm-1-2H24A20,20,0,0,1,4,37H60A20,20,0,0,1,40,56Z"/><path d="M7.73,17.32a1,1,0,1,0-1.46,1.36l13,14a1,1,0,0,0,1.41,0,1,1,0,0,0,.05-1.41Z"/><path d="M8,24H6a1,1,0,0,0,0,2H8a1,1,0,0,0,0-2Z"/><path d="M14,20a1,1,0,0,0,1-1V17a1,1,0,0,0-2,0v2A1,1,0,0,0,14,20Z"/><path d="M18,25a1,1,0,0,0,1-1V22a1,1,0,0,0-2,0v2A1,1,0,0,0,18,25Z"/><path d="M12,29H10a1,1,0,0,0,0,2h2a1,1,0,0,0,0-2Z"/></svg>