<svg xmlns="http://www.w3.org/2000/svg" viewBox="0 0 24 30" x="0px" y="0px"><defs><style>.cls-1{stroke-width:0px;}</style></defs><path class="cls-1" d="m2.25,13.01c.5.31,1.1.49,1.75.49h1.6l.78,1.25.31.5h-2.19c-.44,0-.86-.13-1.21-.35-.62-.4-1.04-1.09-1.04-1.89Zm7.75,3.24c.57,0,1.11-.31,1.44-.83l1.2-1.92h-5.28l1.2,1.92c.33.52.87.83,1.44.83Zm4,0c.57,0,1.11-.31,1.44-.83l1.2-1.92h-2.23l-1.47,2.35c.3.26.67.4,1.06.4Zm5.5.5h-3.22c-.59.64-1.41,1-2.28,1-.73,0-1.44-.26-2-.73-.56.47-1.27.73-2,.73-.87,0-1.69-.37-2.29-1h-3.21c-.71,0-1.4-.2-2.01-.58-.06-.04-.12-.08-.18-.13-.04.13-.06.25-.06.39,0,1.97,1.68,3.57,3.74,3.57h12.02c2.06,0,3.74-1.6,3.74-3.58,0-.13-.02-.26-.06-.39-.62.45-1.38.72-2.19.72Zm-1.09-3.25l-1.1,1.75h2.19c1.24,0,2.24-1,2.25-2.24-.5.31-1.1.49-1.75.49h-1.59Zm-14.41-1.5h16c.965,0,1.75-.716,1.75-1.596,0-2.841-2.125-5.232-5-5.937v4.033c0,.414-.336.75-.75.75s-.75-.336-.75-.75v-4.238c-.084-.003-.166-.012-.25-.012h-2.25v4.25c0,.414-.336.75-.75.75s-.75-.336-.75-.75v-4.25h-2.25c-.084,0-.166.009-.25.012v4.238c0,.414-.336.75-.75.75s-.75-.336-.75-.75v-4.033c-2.875.706-5,3.096-5,5.937,0,.88.785,1.596,1.75,1.596Z"/></svg>