<svg xmlns="http://www.w3.org/2000/svg" viewBox="0 0 100 125" x="0px" y="0px"><path d="M10.73,74.54v1.75A8.29,8.29,0,0,0,19,84.57H81a8.29,8.29,0,0,0,8.29-8.28V74.54ZM81,81.07H19a4.79,4.79,0,0,1-4.45-3H85.43A4.79,4.79,0,0,1,81,81.07Z"/><rect x="12.15" y="68.6" width="75.7" height="3.5"/><path d="M50.58,42.92a.75.75,0,0,0-.93-1.18,2.7,2.7,0,0,0-.24,4,.79.79,0,0,0,.53.22.75.75,0,0,0,.53-.22.74.74,0,0,0,0-1.06,1.23,1.23,0,0,1-.35-.85A1.19,1.19,0,0,1,50.58,42.92Z"/><path d="M47.15,67.16h7.6A6.22,6.22,0,0,0,61,61V58.09a6.22,6.22,0,0,0-6.21-6.22h-2V50.25a6.73,6.73,0,0,0,0-13V24.82h2.15v-3.5H52.7v-.65a4.18,4.18,0,1,0-4.21,4.15h.71V37.24a6.73,6.73,0,0,0,0,13v1.62H47.15a6.22,6.22,0,0,0-6.21,6.22V61A6.22,6.22,0,0,0,47.15,67.16Zm1.34-45.84a.65.65,0,0,1-.65-.65.67.67,0,0,1,.7-.66.66.66,0,0,1,.66.66v.65Zm-.78,22.42A3.24,3.24,0,1,1,51,47,3.25,3.25,0,0,1,47.71,43.74ZM44.44,58.09a2.72,2.72,0,0,1,2.71-2.72h3.67l.13,0,.12,0h3.68a2.72,2.72,0,0,1,2.71,2.72V61a2.71,2.71,0,0,1-2.71,2.71h-7.6A2.71,2.71,0,0,1,44.44,61Z"/><path d="M54.23,61.85a.88.88,0,0,0,1.24-1.24l-1.69-1.68a.87.87,0,1,0-1.23,1.24Z"/><path d="M47.05,60.07a.88.88,0,0,0,.62-.25l1.68-1.69a.87.87,0,0,0,0-1.23.88.88,0,0,0-1.24,0l-1.68,1.68a.87.87,0,0,0,.62,1.49Z"/><path d="M17.1,67.16H36.36a2.28,2.28,0,0,0,2.28-2.28V59.19a2.28,2.28,0,0,0-2.28-2.28H28.15a5.34,5.34,0,0,0-10.67,0H17.1a2.28,2.28,0,0,0-2.28,2.28v5.69A2.28,2.28,0,0,0,17.1,67.16Zm18-3.5H18.32V60.41H35.14ZM22.82,55.24a1.85,1.85,0,0,1,1.84,1.67H21A1.86,1.86,0,0,1,22.82,55.24Z"/><path d="M74.8,42.92a.75.75,0,0,0-.93-1.18,2.7,2.7,0,0,0-.24,4,.75.75,0,0,0,1.06,0,.75.75,0,0,0,0-1.06,1.2,1.2,0,0,1,.11-1.79Z"/><path d="M71.37,67.16H79A6.22,6.22,0,0,0,85.18,61V58.09A6.23,6.23,0,0,0,79,51.87h-2V50.25a6.73,6.73,0,0,0,0-13V24.82h2.15v-3.5H76.92v-.65a4.18,4.18,0,1,0-4.21,4.15h.71V37.24a6.73,6.73,0,0,0,0,13v1.62h-2a6.22,6.22,0,0,0-6.21,6.22V61A6.21,6.21,0,0,0,71.37,67.16Zm1.34-45.84a.65.65,0,0,1-.65-.65.68.68,0,0,1,1.36,0v.65Zm-.79,22.42A3.25,3.25,0,1,1,75.17,47,3.25,3.25,0,0,1,71.92,43.74ZM68.66,58.09a2.71,2.71,0,0,1,2.71-2.72H75l.13,0,.12,0H79a2.72,2.72,0,0,1,2.72,2.72V61A2.71,2.71,0,0,1,79,63.66H71.37A2.71,2.71,0,0,1,68.66,61Z"/><path d="M78.45,61.85a.87.87,0,0,0,1.23-1.24L78,58.93a.88.88,0,1,0-1.24,1.24Z"/><path d="M71.27,60.07a.85.85,0,0,0,.61-.25l1.69-1.69a.87.87,0,0,0,0-1.23.88.88,0,0,0-1.24,0l-1.68,1.68a.88.88,0,0,0,0,1.24A.86.86,0,0,0,71.27,60.07Z"/></svg>