<svg xmlns="http://www.w3.org/2000/svg" data-name="Layer 1" viewBox="0 0 512 640" x="0px" y="0px"><title>Artboard 79</title><path d="M400.757,177.863l-48.808,0a6,6,0,0,0-5.608,3.874c-14.022,37-50.327,61.854-90.341,61.854s-76.319-24.858-90.341-61.854a6,6,0,0,0-5.608-3.874l-48.808,0a6,6,0,0,0-5.964,6.661l31.7,286.136a6,6,0,0,0,5.963,5.34H369.059a6,6,0,0,0,5.963-5.34l31.7-286.136a6,6,0,0,0-5.964-6.661Z"/><path d="M177.774,51H147.979A6.315,6.315,0,0,0,142,57.377V109H120.726A5.454,5.454,0,0,0,115,114.615v48.8a6,6,0,0,0,12,0V121h18v44.978a6,6,0,0,0,12,0V114.615a5.593,5.593,0,0,0-3-5.19V63h18V179.315a6,6,0,0,0,12,0V104h22V213.07a6,6,0,0,0,12,0V98.383c0-3.314-2.338-6.383-5.651-6.383H201V54h30V224.07a6,6,0,0,0,12,0V70.988a12.614,12.614,0,0,0,1.331.012H275v52.618l-13.552,2.162c-2.9.478-5.448,2.983-5.448,5.92v97.35a6,6,0,0,0,12,0V136.793l25-4v83.28a6,6,0,0,0,12,0V125.721a6.106,6.106,0,0,0-2.224-4.575,5.718,5.718,0,0,0-4.729-1.345L287,121.642V65.065c0-.14-.012-.278-.021-.417.009-.138.021-.276.021-.417V48h33V83.228a6.4,6.4,0,0,0-4.1,5.575l-3.347,112.706a6.046,6.046,0,0,0,5.87,6.18c.062,0,.153,0,.215,0a6.005,6.005,0,0,0,6.007-5.809L327.943,95h25.279l-.793,66.867A6.029,6.029,0,0,0,358.357,168h.073a6.059,6.059,0,0,0,6-6l.686-58.11a5.976,5.976,0,0,0,1.957.107h19.5L382.7,160.373a6.087,6.087,0,0,0,5.573,6.494c.14.01.28.063.419.063a5.979,5.979,0,0,0,5.979-5.563l4.321-62.583a6.423,6.423,0,0,0-1.6-4.692A6.191,6.191,0,0,0,393,92H367.072a6.184,6.184,0,0,0-1.822.475l.043-3.513a5.874,5.874,0,0,0-1.732-4.234A5.949,5.949,0,0,0,359.293,83H332V42c0-3.313-2.24-6-5.554-6H280.635A5.7,5.7,0,0,0,275,42V59H244.331c-.311,0-.331.1-1.331.142V47.98c0-3.313-2.271-5.98-5.584-5.98H195.062A6.036,6.036,0,0,0,189,47.98V92h-5V57.377A6.528,6.528,0,0,0,177.774,51Z"/></svg>