<svg xmlns="http://www.w3.org/2000/svg" data-name="Layer 1" viewBox="0 0 64 80" x="0px" y="0px"><title>Fries-JUL14</title><path d="M61.46,23.74a.89.89,0,0,0-.48-.63l-3.33-1.66.1-.19A.89.89,0,0,0,57.16,20L53,19a.89.89,0,0,0-.21,0l.41-1a.89.89,0,0,0-.72-1.22l-4.28-.49a.89.89,0,0,0-.92.54l-1.66,4L43.9,15.61a.89.89,0,0,0-1.34-.47L39,17.52a.89.89,0,0,0-.36,1L39,19.7a.88.88,0,0,0-.26.22l-1.78,2.37-3.66-6.56a.89.89,0,0,0-1.4-.19l-.12.12a.88.88,0,0,0-.27-.17l-4.07-1.43a.89.89,0,0,0-1,.33l-2.18,3.08L20.05,16.4a.89.89,0,0,0-1,.42L16.6,21.08l-4.48-4.45a.89.89,0,0,0-1.4.2L8.64,20.61a.89.89,0,0,0,.15,1.06L10,22.87,5.47,21.47a.89.89,0,0,0-1.15.83l-.1,4.31a.89.89,0,0,0,.59.85,2.41,2.41,0,0,0-2.21,3L7.48,49.33a.89.89,0,0,0,.86.67H54.27a.89.89,0,0,0,.86-.67L60,30.47a2.39,2.39,0,0,0-1.58-2.89l2.82-3.08A.89.89,0,0,0,61.46,23.74Zm-8.23-2.82,2.41.53-3.23,6H49.71Zm-4.61-2.76,2.45.28L47.3,27.52a11.92,11.92,0,0,0-1.21.2l-.93-1.22Zm-6-.89,2,6.14-.6,1.45-2.44-3.21-1-3Zm-3.12,4.65,4.83,6.36a11.76,11.76,0,0,0-1.58.76l-1.5-.91L38,23.89ZM40,31.2a11.8,11.8,0,0,0-7.85-3.71l-4-2.43.65-2.38,9.85,6h0l2.47,1.49A12,12,0,0,0,40,31.2ZM29.24,20.63l.24.43-.38-.23Zm-3.3,4.67.29-.14,0,.08a.89.89,0,0,0,.4,1l1.27.77-3.59,1.71-.44-.44Zm10.7.08-4.09-2.47-2-3.55,1.74-1.74Zm-9.16-9.43,2.32.82L22.56,27l-1.7-1.69.77-1.08h0Zm-7.21,2.34,2.39.6-2.53,4.37-.55.78-1.67-1.66Zm-8.56.44L23.48,30.41c-.29.25-.56.52-.83.8a11.8,11.8,0,0,0-4.9-3.15l-7.23-7.18ZM6.07,23.51l6.66,2.07,1.92,1.9c-.22,0-.44,0-.66,0H10.74L6,26ZM53.58,48.22H9L7.93,44H54.68ZM58.28,30,55.14,42.19H7.47L4.32,30a.64.64,0,0,1,.62-.81h9a10.07,10.07,0,0,1,8,3.87l.07.06a.84.84,0,0,0,.08.09l.08,0,.1.06.19.06.13,0h0l.08,0a.86.86,0,0,0,.25-.06l.11-.05a.36.36,0,0,0,.22-.17l0,0a10.13,10.13,0,0,1,15.93,0l.08.07a.81.81,0,0,0,.06.08l.06,0,.17.09.14,0h.33l.17-.06.14-.07.07,0a.84.84,0,0,0,.08-.09l.07-.06a10.17,10.17,0,0,1,2.41-2.21.85.85,0,0,0,.16-.11,10.08,10.08,0,0,1,5.39-1.55h9a.64.64,0,0,1,.62.81Zm-2.15-2.58H54.42l2.14-4,.37-.4,2.2,1.1Z"/></svg>