<svg xmlns="http://www.w3.org/2000/svg" xmlns:xlink="http://www.w3.org/1999/xlink" xml:space="preserve" version="1.1" style="shape-rendering:geometricPrecision;text-rendering:geometricPrecision;image-rendering:optimizeQuality;" viewBox="0 0 189 296.25" x="0px" y="0px" fill-rule="evenodd" clip-rule="evenodd"><defs><style type="text/css">
   
    .fil0 {fill:black;fill-rule:nonzero}
   
  </style></defs><g><g><path class="fil0" d="M189 95c0,26 -10,50 -27,67 -17,17 -41,27 -67,27 -26,0 -50,-10 -67,-27 -17,-17 -28,-41 -28,-67 0,-26 11,-50 28,-67 17,-17 41,-28 67,-28 26,0 50,11 67,28 17,17 27,41 27,67zm-31 63c16,-16 26,-39 26,-63 0,-25 -10,-47 -26,-63 -16,-17 -39,-27 -63,-27 -25,0 -47,10 -63,27 -17,16 -27,38 -27,63 0,24 10,47 27,63 16,16 38,26 63,26 24,0 47,-10 63,-26z"/><path class="fil0" d="M169 95c0,20 -8,39 -22,52 -13,14 -32,22 -52,22 -21,0 -39,-8 -53,-22 -13,-13 -21,-32 -21,-52 0,-21 8,-39 21,-53 14,-13 32,-21 53,-21 20,0 39,8 52,21 14,14 22,32 22,53zm-26 48c13,-12 20,-29 20,-48 0,-19 -7,-36 -20,-49 -12,-12 -29,-20 -48,-20 -19,0 -36,8 -49,20 -12,13 -20,30 -20,49 0,19 8,36 20,48 13,13 30,20 49,20 19,0 36,-7 48,-20z"/><path class="fil0" d="M81 57c0,-1 -1,-2 -1,-2 -2,0 -2,1 -2,2l0 38 -3 0 -4 -38c0,-1 0,-1 -1,-2 -1,0 -2,1 -2,2l-4 38 -3 0 0 -38c0,-1 0,-1 -1,-2 -1,0 -2,1 -3,2 -2,15 -17,57 8,66 0,0 0,0 0,1l-9 99c0,1 0,1 0,2 1,7 7,13 15,12 7,0 12,-7 12,-14l-9 -99c0,-1 0,-1 0,-1 25,-9 10,-50 7,-66z"/><path class="fil0" d="M121 136c19,-15 12,-65 2,-76 -13,-12 -13,0 -13,0l0 77 0 1 -7 85c0,1 0,2 0,3 0,7 7,12 14,11 7,0 13,-7 12,-14l-8 -87z"/></g></g></svg>