<svg xmlns="http://www.w3.org/2000/svg" viewBox="0 0 100.38965 85.18038750000001" x="0px" y="0px"><title>steak_2</title><g data-name="Camada 2"><g data-name="Camada 1"><path d="M51.54492.00075A34.07178,34.07178,0,1,0,85.61719,34.073,34.11137,34.11137,0,0,0,51.54492.00075Zm0,64.14356A30.07178,30.07178,0,1,1,81.61719,34.073,30.10626,30.10626,0,0,1,51.54492,64.14431Z"/><path d="M53.11279,9.55544H53.1123a17.49756,17.49756,0,0,0-10.687,3.35352,22.88394,22.88394,0,0,0-8.05468,11.76367c-2.0752,6.67773-1.61377,13.9248-.80567,20.76074.91455,7.74121,6.811,13.15625,14.01563,13.15625a14.64017,14.64017,0,0,0,1.53759-.081c7.37989-.77735,10.62354-6.07032,13.0293-11.67481a35.20358,35.20358,0,0,1,2.93213-5.124,34.803,34.803,0,0,0,3.43652-6.21094,21.79357,21.79357,0,0,0,.87305-14.31445C67.29346,14.31325,60.75244,9.6404,53.11279,9.55544ZM64.7876,34.04958a31.3231,31.3231,0,0,1-3.0669,5.48731,38.74927,38.74927,0,0,0-3.249,5.71875c-2.28857,5.332-4.72168,8.74316-9.77246,9.27441-5.65088.60449-10.44727-3.5166-11.16211-9.56543-.75586-6.39844-1.19971-13.14062.65332-19.10449a18.86658,18.86658,0,0,1,6.59033-9.71777,13.67635,13.67635,0,0,1,8.12354-2.58789c.05468,0,.10937,0,.16406.001,4.90039.05371,10.66455,2.79492,12.49463,8.7959A18.07386,18.07386,0,0,1,64.7876,34.04958Z"/><path d="M17.47266,2.21462a2.21363,2.21363,0,1,0-4.42725,0V13.9988h-2.0957V2.21462A2.216,2.216,0,0,0,8.73633.00075,2.15777,2.15777,0,0,0,7.18408.64138,2.17371,2.17371,0,0,0,6.523,2.21462V13.9988H4.42725V2.21462A2.21631,2.21631,0,0,0,2.21387.00075a2.16522,2.16522,0,0,0-1.562.6504A2.19439,2.19439,0,0,0,0,2.21462V15.03493a9.23661,9.23661,0,0,0,6.523,8.8125V58.42849a2.21338,2.21338,0,1,0,4.42676,0V23.84743a9.23543,9.23543,0,0,0,6.523-8.8125ZM10.65234,19.16775l-.00683.0039a3.66694,3.66694,0,0,1-2.65137.46289,4.37953,4.37953,0,0,1-2.13379-1.209h5.76026A4.66969,4.66969,0,0,1,10.65234,19.16775Z"/><path d="M98.16992.15151a3.30613,3.30613,0,0,0-3.64013,1.24c-3.44,4.59-10.31983,16.81-4.31006,35.59a2.025,2.025,0,0,0,1.91015,1.41,2.00375,2.00375,0,0,0,1.90967-2.6c-4.66992-14.52-1.12988-24.49,2.3501-30.05v52.9a2,2,0,0,0,4,0V3.2015A3.15654,3.15654,0,0,0,98.16992.15151Z"/><path d="M55.15039,19.06972A1.99985,1.99985,0,1,0,52.32227,21.898l5.2373,5.23792a2,2,0,0,0,2.82861-2.82825Z"/><path d="M43.29785,38.74569a2,2,0,0,0-2.82861,2.82825l5.23779,5.238a2,2,0,0,0,2.82861-2.82831Z"/><path d="M44.92432,24.77724a1.99983,1.99983,0,1,0-2.82813,2.82825l13.2959,13.29578A1.99983,1.99983,0,1,0,58.22021,38.073Z"/></g></g></svg>