<svg xmlns="http://www.w3.org/2000/svg" xmlns:xlink="http://www.w3.org/1999/xlink" version="1.1" x="0px" y="0px" viewBox="0 0 100 125" enable-background="new 0 0 100 100" xml:space="preserve"><path fill="#000000" d="M89.446,60.291c-0.236-0.569-0.79-0.939-1.405-0.939h-5.019c-1.731-5.532-5.398-10.068-10.144-12.941  c-1.681-8.174-9.019-14.238-17.447-14.238c-2.364,0-4.65,0.497-6.765,1.371c-1.151-0.852-2.562-1.371-4.1-1.371  c-3.839,0-6.959,3.121-6.959,6.957c0,1.195,0.327,2.303,0.861,3.285c-0.537,0.404-1.115,0.629-1.888,0.629h-2.886  c-2.408,0-4.686,0.502-6.775,1.377c-1.149-0.853-2.556-1.377-4.096-1.377c-3.834,0-6.959,3.121-6.959,6.957  c0,1.543,0.532,2.945,1.386,4.095c-0.685,1.645-1.131,3.407-1.289,5.257h-4.003c-0.62,0-1.175,0.37-1.406,0.938  c-0.236,0.569-0.105,1.225,0.327,1.66l5.433,5.432c0.288,0.285,0.675,0.447,1.078,0.447h65.216c0.403,0,0.79-0.162,1.074-0.447  l5.438-5.432C89.553,61.514,89.683,60.858,89.446,60.291z M73.23,50.359c2.942,2.283,5.266,5.358,6.598,8.992h-2.617  c-1.055-2.471-2.639-4.646-4.63-6.397C72.959,52.162,73.185,51.283,73.23,50.359z M73.863,59.352h-2.763  c-2.231-3.277-5.976-5.439-10.229-5.439H52.9c2.366-1.531,5.123-2.391,7.971-2.391C66.499,51.521,71.368,54.707,73.863,59.352z   M49.729,52.43c-0.271-0.307-0.554-0.654-0.872-1.06l-0.379-0.47c-0.078-0.113-0.172-0.211-0.251-0.321  c3.505-2.829,7.813-4.403,12.318-4.478c-0.497,0.727-0.85,1.553-1.037,2.438C55.933,48.814,52.532,50.172,49.729,52.43z M70.215,50  c0,0.379-0.077,0.738-0.183,1.086c-2.198-1.336-4.694-2.192-7.378-2.462c0.558-1.479,1.979-2.536,3.648-2.536  C68.464,46.088,70.215,47.842,70.215,50z M55.432,35.217c5.711,0,10.81,3.354,13.253,8.273c-0.746-0.275-1.544-0.447-2.382-0.447  c-0.208,0-0.401,0.044-0.604,0.061c-2.305-3.439-6.1-5.496-10.268-5.496c-1.396,0-2.725,0.242-3.997,0.699  c-0.097-0.812-0.326-1.574-0.677-2.277C52.248,35.52,53.813,35.217,55.432,35.217z M55.432,40.652c2.373,0,4.58,0.884,6.274,2.426  c-0.28-0.01-0.555-0.035-0.835-0.035c-5.35,0-10.473,1.855-14.615,5.221c-0.265-0.264-0.525-0.536-0.802-0.783  c0.549-0.588,1.046-1.203,1.548-1.844l0.606-0.762C49.902,42.033,52.459,40.652,55.432,40.652z M44.567,35.217  c2.155,0,3.912,1.754,3.912,3.912c0,0.279-0.033,0.549-0.088,0.812c-1.114,0.805-2.169,1.802-3.153,3.022l-0.01,0.013  c-0.219,0.036-0.438,0.066-0.661,0.066c-2.16,0-3.916-1.754-3.916-3.914C40.651,36.971,42.407,35.217,44.567,35.217z M33.696,46.088  c4.916,0,9.502,2.436,12.334,6.62l0.439,0.552c1.377,1.732,2.933,3.697,6.078,3.697h8.324c2.384,0,4.552,0.912,6.198,2.395H52.681  c-0.002,0-0.007-0.004-0.01-0.004c-4.338,0-6.907-3.213-8.78-5.561c-0.537-0.671-1.011-1.26-1.44-1.686  c-2.338-2.336-5.448-3.623-8.755-3.623c-1.407,0-2.759,0.246-4.023,0.682c-0.097-0.809-0.318-1.576-0.67-2.275  C30.479,46.383,32.051,46.088,33.696,46.088z M33.696,51.521c2.495,0,4.842,0.971,6.603,2.732c0.366,0.363,0.762,0.865,1.213,1.433  c0.858,1.069,1.976,2.438,3.407,3.665h-4.445c-0.696-3.107-3.465-5.439-6.777-5.439s-6.081,2.332-6.776,5.439h-2.417  C25.234,54.922,29.058,51.521,33.696,51.521z M37.3,59.352h-7.209c0.592-1.406,1.987-2.395,3.604-2.395  C35.315,56.957,36.709,57.945,37.3,59.352z M22.825,46.088c2.16,0,3.912,1.754,3.912,3.912c0,0.238-0.043,0.463-0.082,0.686  c-1.227,0.849-2.284,1.911-3.135,3.133c-0.229,0.044-0.451,0.094-0.695,0.094c-2.155,0-3.912-1.754-3.912-3.912  S20.669,46.088,22.825,46.088z M19.696,56.169c0.704,0.354,1.47,0.603,2.285,0.703c-0.272,0.792-0.467,1.622-0.571,2.479h-2.416  C19.109,58.249,19.352,57.186,19.696,56.169z M81.976,64.783H18.019l-2.386-2.387h68.733L81.976,64.783z"/></svg>