<svg xmlns="http://www.w3.org/2000/svg" data-name="Layer 1" viewBox="0 0 79.79 108.5875" x="0px" y="0px"><path d="M85.28,50.45a34.64,34.64,0,0,1-4,16.12l4.34,2.5a39.78,39.78,0,0,0,0-37.25l-4.34,2.5A34.65,34.65,0,0,1,85.28,50.45Z" transform="translate(-10.49 -3.43)"/><path d="M83.87,24.56l4.34-2.5A39.88,39.88,0,0,0,56,3.43v5A34.91,34.91,0,0,1,83.87,24.56Z" transform="translate(-10.49 -3.43)"/><path d="M48.89,15.59v-5A39.91,39.91,0,0,0,16.63,29.22L21,31.73A34.9,34.9,0,0,1,48.89,15.59Z" transform="translate(-10.49 -3.43)"/><path d="M21,69.16l-4.33,2.51A39.88,39.88,0,0,0,48.89,90.3v-5A34.9,34.9,0,0,1,21,69.16Z" transform="translate(-10.49 -3.43)"/><path d="M51.89,85.3v5A39.88,39.88,0,0,0,84.14,71.67l-4.33-2.51A34.9,34.9,0,0,1,51.89,85.3Z" transform="translate(-10.49 -3.43)"/><path d="M15.49,50.45a34.65,34.65,0,0,1,4-16.13l-4.34-2.5a39.78,39.78,0,0,0,0,37.25l4.34-2.5A34.64,34.64,0,0,1,15.49,50.45Z" transform="translate(-10.49 -3.43)"/><path d="M33.61,61.86a4.5,4.5,0,0,1,.07.63,4.61,4.61,0,0,1-7.47,3.64L24,67.44a31.43,31.43,0,0,0,24.94,14.4V53Zm4.76,2a1.78,1.78,0,1,1,1.78,1.78A1.78,1.78,0,0,1,38.37,63.89ZM44,78.16a4.63,4.63,0,1,1,4.63-4.63A4.62,4.62,0,0,1,44,78.16Z" transform="translate(-10.49 -3.43)"/><path d="M51.89,81.84a31.41,31.41,0,0,0,24.93-14.4L51.89,53ZM68.74,67.49a2.36,2.36,0,1,1-2.36,2.36A2.36,2.36,0,0,1,68.74,67.49Zm-5.92.58a4.63,4.63,0,1,1-4.63-4.63A4.63,4.63,0,0,1,62.82,68.07ZM55,55.71a2.19,2.19,0,1,1-2.18,2.18A2.18,2.18,0,0,1,55,55.71Z" transform="translate(-10.49 -3.43)"/><path d="M24.42,62.49a4.62,4.62,0,0,1,7.85-3.32l15.12-8.72L22.45,36.05a31.43,31.43,0,0,0,0,28.79l2.12-1.22A4.67,4.67,0,0,1,24.42,62.49Zm15-14.32a2.19,2.19,0,1,1-2.18,2.19A2.19,2.19,0,0,1,39.43,48.17ZM28.84,45.31a3.06,3.06,0,1,1-3.06,3.06A3.06,3.06,0,0,1,28.84,45.31Z" transform="translate(-10.49 -3.43)"/><path d="M48.89,19.05A31.43,31.43,0,0,0,24,33.45l24.94,14.4ZM32,35.55A3.45,3.45,0,1,1,35.4,32.1,3.44,3.44,0,0,1,32,35.55Zm10.71,3.14A2.73,2.73,0,1,1,45.4,36,2.73,2.73,0,0,1,42.67,38.69Zm2.18-12.92a1.43,1.43,0,1,1,1.43-1.43A1.42,1.42,0,0,1,44.85,25.77Z" transform="translate(-10.49 -3.43)"/><path d="M78.32,64.84a31.43,31.43,0,0,0,0-28.79L53.39,50.45Zm-2.4-24.28a1.53,1.53,0,1,1-1.53,1.53A1.53,1.53,0,0,1,75.92,40.56Zm-6.16,6.86a4.63,4.63,0,1,1-4.62,4.63A4.63,4.63,0,0,1,69.76,47.42Z" transform="translate(-10.49 -3.43)"/><path d="M80.88,26.29A31.41,31.41,0,0,0,56,11.89v28.8ZM59.66,36.55A2.36,2.36,0,1,1,62,34.19,2.36,2.36,0,0,1,59.66,36.55Zm13.16-11a1.43,1.43,0,1,1-1.42,1.42A1.41,1.41,0,0,1,72.82,25.51Zm-9.85-9A5.46,5.46,0,1,1,57.51,22,5.46,5.46,0,0,1,63,16.56Z" transform="translate(-10.49 -3.43)"/></svg>