<svg xmlns="http://www.w3.org/2000/svg" xmlns:xlink="http://www.w3.org/1999/xlink" xml:space="preserve" version="1.1" style="shape-rendering:geometricPrecision;text-rendering:geometricPrecision;image-rendering:optimizeQuality;" viewBox="0 0 333.33 416.66249999999997" x="0px" y="0px" fill-rule="evenodd" clip-rule="evenodd"><defs><style type="text/css">
   
    .fil0 {fill:black;fill-rule:nonzero}
   
  </style></defs><g><path class="fil0" d="M130.79 108.57l0 62.85c0,2.76 -2.24,5 -5,5 -2.76,0 -5,-2.24 -5,-5l0 -62.85 -21.41 0 0 39c0,2.76 -2.24,5 -5,5 -2.76,0 -5,-2.24 -5,-5l0 -39 -25.06 0 -10.34 0 0 4.48c0,30.98 12.69,59.16 33.1,79.58 19.32,19.31 45.57,31.71 74.58,32.99l0 54.76 -12.37 0c-8.7,0 -16.62,3.56 -22.35,9.29 -5.73,5.73 -9.29,13.64 -9.29,22.35 0,2.76 2.24,5 5,5l88 0c2.76,0 5,-2.24 5,-5 0,-8.7 -3.56,-16.62 -9.29,-22.35 -5.73,-5.73 -13.64,-9.29 -22.35,-9.29l-12.37 0 0 -54.76c29.01,-1.28 55.26,-13.68 74.58,-32.99 20.42,-20.42 33.1,-48.6 33.1,-79.58l0 -4.48 -10.41 0 -81.68 0 -56.47 0zm4.59 -70.78c11.69,1.69 22.4,6.42 31.29,13.37 5.1,-3.98 10.82,-7.24 17.1,-9.66 4.61,-1.76 9.31,-2.99 14.18,-3.7 -2.11,-5.48 -5.62,-10.27 -10.1,-13.93 -5.76,-4.72 -13.15,-7.55 -21.19,-7.55 -8.04,0 -15.43,2.83 -21.19,7.55 -4.48,3.67 -7.99,8.46 -10.1,13.93zm38.78 20.21c10.15,10.77 16.74,24.92 17.91,40.57l71.71 0c-1.19,-13.6 -7.2,-25.83 -16.31,-34.94 -10.22,-10.21 -24.35,-16.53 -39.94,-16.53 -7.09,0 -13.87,1.3 -20.21,3.71 -4.79,1.84 -9.17,4.26 -13.17,7.19zm-104.62 40.57l24.9 0 31.41 0 56.19 0c-1.19,-13.48 -7.1,-25.61 -16.2,-34.81 -10.34,-10.33 -24.46,-16.66 -40.05,-16.66 -15.59,0 -29.71,6.32 -39.93,16.54 -9.11,9.1 -15.13,21.33 -16.32,34.93z"/></g></svg>